<svg xmlns="http://www.w3.org/2000/svg" viewBox="0 0 555.44 71.96"><defs><style>.cls-1{fill:#231815;}.cls-2{fill:#ffec00;}.cls-3{fill:#fff;stroke:#231815;}</style></defs><g id="logo1" data-name="logo1"><g id="logo2" data-name="logo2"><path class="cls-1" d="M393.48,34.39l6.25-5.6L402.4,7.88c-.67-.14-21.13-3.94-31.92,2.86l-.17-3.89L334.52,7.93l.06-1L303.8,8.61l-3.93,3.6L290.94,7l-8.12,8c.1-4.52.19-8.14.19-8.14H266.29l-6.09,5.55-.91-5.56c-13.22-.64-21.87,4.68-26.42,9.58A21.18,21.18,0,0,0,215,7,20.52,20.52,0,0,0,202,11.34C199.7,4.79,192.46,1.6,185.32.92c-10.73-1-39.07-.8-39.35-.8l-9.25,7.37-.8,32.58L144.21,36l-6.68,35.78h24.05l8-7.08,2.47,7.08h22l1.74-1.56A23.61,23.61,0,0,0,221.23,65c15.6,14.22,35.51,2.12,35.51,2.12l-.07,4.67h93.61l4.92-4.38.25,2.67c19.95,3,26.36,1.5,31.46-.2,2.42-.81,10.06-8.52,11.38-9.77,2.52-2.39,4.15-5.43,4.53-10.22C403.44,42.24,398.91,37.6,393.48,34.39Z"/><path class="cls-2" d="M182.37,62l-6.1-18.79-8.21,2.35L169.16,62H151l5.48-37.13-9.31,3.89.4-27s27.91-.18,37.56.75c8.06.77,16,5.1,16,13.6,0,10.76-16,22.87-16,22.87l15,23Z"/><path class="cls-2" d="M213.23,62A18,18,0,0,1,198,54.22C194.76,49.65,193,43.38,193,36.58c0-.78,0-1.54.08-2.32,4.38-4.36,9.68-11.07,9.77-18A14.7,14.7,0,0,0,202.5,13,19,19,0,0,1,215,8.57c14.35,0,21.85,13.38,21.85,26.61C236.82,48.1,229.44,62,213.23,62Z"/><path class="cls-2" d="M246.17,62c-6.4-.55-11.23-3-14.6-6.58,4.64-5.49,6.85-13,6.85-20.26A33.89,33.89,0,0,0,233.94,18c5.86-6.36,13.74-10,23.92-9.64.19,1.1,2.08,12.27,2.41,14.14C252.63,21,245.76,23.24,242,29c-5.77,8.78-1.63,19,7.68,17.44,5.52-.91,11.17-5.4,13.53-10.64,1.35,2,8.95,12.75,9.41,13.42C269.38,56.49,257.8,63.05,246.17,62Z"/><path class="cls-1" d="M257.06,29.3,257,37.71l-3.33,2.93A12.78,12.78,0,0,1,252.42,44a11,11,0,0,1-3,.87c-6.19.78-10.06-4.88-7.38-12.23,4.74-1.57,11.11.18,11.11.18Z"/><path class="cls-2" d="M289.75,61.9l-8.66-21.34-.47,21.34H267.56l0-4.37a19.75,19.75,0,0,0,7-8.53l-6.91-9.86.18-30.73h13.52V36.58L291.82,9.31l13.55,8L290.62,38.55,307.24,61.9Z"/><path class="cls-1" d="M294.74,35.41l-.1,6s-1.94-2.73-2.07-2.9Z"/><path class="cls-2" d="M309.21,61.93l-3.91-5.51c0-8.65.05-25.51.07-36.33l2.28-3.29-2.27-1.34c0-3.07,0-5.08,0-5.34l27.49-1.51c-.09,1.48-.8,12.66-.8,12.66l-19.42-.86V34.3l13.11-3.92V42.66l-12.95.53V54.34L334.7,48.4c0,1.68.12,12.19.14,13.53Z"/><path class="cls-1" d="M327.36,36.62l7-2.11L332.5,47.33c-3.7,1-9.37,2.56-13.4,3.65l8.26-6.79Z"/><polygon class="cls-1" points="318.25 30.97 314.25 32.17 314.25 30.48 318.25 30.97"/><path class="cls-2" d="M339.75,62c.25-1.73,5.62-37.86,5.62-37.86s-13,3.86-14.7,4.36c0-.63-.09-2.94-.17-5.73l3.07.13.85-13.4,34.37-1c0,1.28.37,8.83.42,9.84l-14.35,4.46S357.59,60.4,357.71,62Z"/><path class="cls-1" d="M357.91,42.72c-.15-1.93-.28-3.84-.42-5.67A24.09,24.09,0,0,0,360.87,40Z"/><path class="cls-2" d="M401.24,49.73c-.35,4.33-1.61,7.24-3.95,9.12-5,4-15.26,3.62-31.3,1.54-.49-5.54-1.06-15.21-1.28-19,6.25,4.12,18,9.88,23.84,7.06s1.06-9.44-9.9-13.95c-6.74-2.77-13.39-6.18-13.08-12.48,0-.29,0-.58.07-.87l5.21-1.62-.29-6.76c8.13-5.91,23.89-4.58,29.95-3.51-.15,1.25-1.62,13.29-1.94,15.9-5.73-5.51-14.33-5.78-19-4.41-6.85,2-6.53,6.79,5,11.18C392.49,34.92,402,39.92,401.24,49.73Z"/><path class="cls-1" d="M186,20.45c-3.6-2.27-15.08.29-20.8,2.1L167,37.22C170.42,35.79,193.9,25.44,186,20.45Z"/><path class="cls-3" d="M168.44,34.8c-.09-.76-.36-2.73-.63-4.89,3.64-.6,8-.71,8.74.65C174,32,171.25,33.43,168.44,34.8Z"/><path class="cls-1" d="M214.34,23.85c-4.36,0-6.63,6.3-6.63,12.53a18.5,18.5,0,0,0,1.53,7.84c1.21,2.5,3,3.82,5.26,3.82,4,0,6.1-6.62,6.1-12.84a19.1,19.1,0,0,0-1.38-7.63C218.12,25.13,216.43,23.85,214.34,23.85Z"/><path class="cls-1" d="M129.45,34.21l-8.85,8.33s-.8,2.23-1.28,2.45a13.78,13.78,0,0,1-6.92,1.29,8.52,8.52,0,0,1-7.88-6.58,14.49,14.49,0,0,1,.88-10.65c4.93-2.41,8.22-3.26,13.32-1.88l8.88-8.36L129.35.36l-.79-.07c-7.4-.72-17.94.88-26.27,6.85C93.6,13.38,86.6,20.86,84.19,27.19l.59-3.51L74,26.23l.39-2.44,8.13.37,8.86-7.83,4.72-16H64.86L63.11,1.92l.3-1.76h-18L36.56,8.49,34.43.13H16.86L8.07,8.33,0,71.75H18.55L25,65.82l.84,5.93h18l3.15-2.92-.73,2.92H80.39l7.85-7.33a22,22,0,0,0,11.9,6.9c10.4,1.91,19.22-.53,29.08-10.18C133.74,56.72,138,53,138,53Z"/><polygon class="cls-2" points="36 61.95 30.52 14.65 25.97 61.93 10.72 61.93 18.26 1.73 33.19 1.73 42.83 38.95 46.9 1.75 61.52 1.75 51.29 61.95 36 61.95"/><polygon class="cls-2" points="87.73 61.94 56.92 61.94 66.23 1.87 93.98 1.87 90.22 14.67 74.42 13.71 72.06 28.33 82.81 25.79 80.38 40.2 70.72 39.14 68.8 51.04 89.02 44.54 87.73 61.94"/><path class="cls-1" d="M80.94,45.47l-5.83,1.86,6-5.44C80.9,44.1,80.94,45.47,80.94,45.47Z"/><path class="cls-2" d="M108.06,61.13C90.59,56.79,86,27,98.73,12.66c8-9,20.32-11.45,28.88-10.82-.14,1.41-1.3,13.62-1.43,15.07-6.26-1-14.23,1.64-19,6.91-9.11,10-5,23.25,5.08,24,5.55.43,12.95-2.85,17.1-10,1,2.28,6.32,13.85,6.75,14.77C124,63.73,114.06,62.63,108.06,61.13Z"/><path class="cls-1" d="M546.37,35.78c4.32-3.13,7.46-9.56,7.46-15.29a13.79,13.79,0,0,0-.22-2.51c-.61-3.44-3.16-9.32-13.3-10-6.16-.42-17.21-.41-23.29-.37V7.29l-.89.13L498.63,8.94l-4.57,3.2-16.51,1.4-5.75,4.64c.65-6.82,1.06-10.75,1.06-10.75l-.94.07L456.64,8.57l-3.23,2.65L454.48.41l-.74-.12C446-.87,434.47,1.35,426,8.68v-.2S416.5,16,413.39,19.39c-5.44,5.87-11.08,16.58-7,34.24a23.14,23.14,0,0,0,16,17.21c4.75,1.44,15.09,2.56,24.12-3.84v4.76H479.2l2-1.59a19.58,19.58,0,0,0,8.73,1.69,18.58,18.58,0,0,0,13.62-6.5l-.83,6.42h24.63a19.3,19.3,0,0,0,12-3.75c2.32-1.79,9.67-8,10.68-8.79l.11-.1a15.3,15.3,0,0,0,5.35-10.91c0-.18,0-.35,0-.53C555.44,42.68,552.63,37.28,546.37,35.78Z"/><path class="cls-2" d="M433.22,61.29A22.28,22.28,0,0,1,418,45c-3.88-17,1.48-27.22,6.65-32.8,7.95-8.57,19.95-11.37,28.11-10.4-.14,1.34-1.31,13.12-1.44,14.46-6.7-.88-14.48,2.16-19.24,7.37a17.18,17.18,0,0,0-3.95,16.67A10.14,10.14,0,0,0,437.39,48c5.55.5,12.95-3,17.1-10.23,1,2.28,6.33,14,6.75,15C449.12,63.88,438.51,62.9,433.22,61.29Z"/><path class="cls-1" d="M446.54,23.33l0,17.69-2,1.64-.73,1.53a17.38,17.38,0,0,1-.84,1.54,13.53,13.53,0,0,1-5.4.71,8.53,8.53,0,0,1-7.88-6.59,15.6,15.6,0,0,1,1.45-12.21,19.91,19.91,0,0,1,10.7-1.26l.85.15Z"/><path class="cls-2" d="M458.13,61.88c0-.28,0-1.82,0-4.49a47.62,47.62,0,0,0,4.62-3.84l.42-.4-5-10.95c0-14.27.06-31.33.06-32.16l12.87-.89c-.17,1.8-2.24,43.14-2.24,43.14s16.88-3.46,18.68-3.95c0,1.69.13,12.18.14,13.54Z"/><path class="cls-2" d="M499.91,61.89c-3.64.4-7.5.13-10.7-2.11l-.1-13.51s-7.88,2-11.65,3c-.19-.82-.41-14.64,1.11-34.39,1.25-.11,12.28-.87,13.8-1,0,5.31-.53,26.27-.44,29.26.07,2.53,1.68,6.14,4.39,5.5,1.83-.42,3.18-2.7,3.34-5.57s.38-32.64.38-32.64L515.19,9s-.82,35.7-1,38.42A15.61,15.61,0,0,1,499.91,61.89Z"/><path class="cls-2" d="M553.84,48.17c-.27,6.61-5.53,13.69-16.44,13.69H514.58c.06-.5,4.63-35.86,4.63-35.86s-1.62.08-2.65.2c.14-7.12.46-13.7.49-17,6.07,0,17.05,0,23.16.37,8.59.59,11.18,5.06,11.84,8.7a13.36,13.36,0,0,1,.18,2.21c0,5.94-3.76,12.89-8.48,15l-2.82,1.27L544,37c6.84.54,9.83,5.67,9.83,10.67C553.85,47.83,553.84,48,553.84,48.17Z"/><path class="cls-1" d="M541,27.06c-1.48-1.32-5.94-.95-10.77-.42l-1.69.19-.1.6-1,6.29,1-.12c3.06-.37,13-1.84,13-5.32A1.61,1.61,0,0,0,541,27.06Z"/><path class="cls-1" d="M527.3,43.12l-.83.06L525.55,50l1-.06c4.14-.29,13.78-1.33,13.78-4.75a1.69,1.69,0,0,0-.56-1.26C538.13,42.47,532.94,42.72,527.3,43.12Z"/></g></g></svg>